<svg width="110" height="38" viewBox="0 0 110 38" fill="none" xmlns="http://www.w3.org/2000/svg">
<path d="M-5.66199 -27.1467C32.4544 -27.1467 70.5708 -27.1467 109.842 -27.1467C109.842 -19.1663 109.842 -11.1466 109.842 -2.92439C109.256 -3.42499 108.741 -3.9868 108.202 -4.61001C101.16 -12.6778 92.6514 -13.8875 84.4545 -11.5769C84.2564 -11.5218 84.0583 -11.4667 83.8541 -11.4099C73.346 -8.40835 63.314 -1.25061 53.4659 5.44526C45.7853 10.6663 38.0901 15.7145 30.1908 19.8941C29.9781 20.0076 29.7654 20.1211 29.5463 20.238C25.8836 22.1698 22.1427 23.4263 18.3691 24.532C18.1492 24.597 17.9293 24.6621 17.7028 24.7291C14.8077 25.5445 11.9091 25.6241 8.98195 25.65C8.80202 25.6527 8.62209 25.6554 8.4367 25.6582C5.21017 25.6944 2.13428 25.0559 -0.998699 23.7245C-1.25152 23.6196 -1.25152 23.6196 -1.50946 23.5127C-2.78889 22.9708 -4.03766 22.334 -5.27439 21.5505C-5.33834 22.2064 -5.4023 22.8623 -5.46819 23.5381C-5.34578 23.5945 -5.22337 23.6509 -5.09724 23.709C-4.83718 23.8294 -4.83718 23.8294 -4.57187 23.9522C-4.27621 24.0887 -4.27621 24.0887 -3.97457 24.2279C-3.56168 24.4246 -3.15018 24.6302 -2.74062 24.8464C-1.33247 25.581 0.0737009 26.1238 1.52069 26.5817C1.69227 26.637 1.86385 26.6923 2.04062 26.7492C11.65 29.6762 22.1211 26.2618 31.262 21.1501C31.8153 20.8474 32.3713 20.5616 32.9275 20.2746C33.8646 19.7841 34.7919 19.2563 35.7156 18.6971C35.8369 18.6239 35.9583 18.5507 36.0833 18.4752C36.5806 18.1745 37.0778 17.8731 37.5741 17.5677C37.9432 17.341 38.3132 17.1184 38.6832 16.8958C38.8995 16.7638 39.1159 16.6317 39.3388 16.4956C39.8808 16.2501 39.8808 16.2501 40.4622 16.5814C28.5147 26.7413 15.4085 37.1331 1.81806 37.1999C1.43036 37.2031 1.04268 37.2134 0.655027 37.2239C-1.55191 37.2385 -3.41144 36.7036 -5.66199 36.1265C-5.66199 15.2464 -5.66199 -5.63382 -5.66199 -27.1467Z" fill="#478767"/>
</svg>
